<mxfile host="drawio-plugin" modified="2022-12-10T02:37:04.102Z" agent="5.0 (Windows NT 6.2; Win64; x64) AppleWebKit/537.36 (KHTML, like Gecko) Chrome/98.0.4758.102 Safari/537.36" etag="yz1Ydx2ymZKVeITQmbVk" version="20.5.3" type="embed"><diagram id="RCmQROUpzB5a1WLBMB2V" name="Page-1"><mxGraphModel dx="882" dy="735" grid="1" gridSize="10" guides="1" tooltips="1" connect="1" arrows="1" fold="1" page="1" pageScale="1" pageWidth="850" pageHeight="1100" math="0" shadow="0"><root><mxCell id="0"/><mxCell id="1" parent="0"/><mxCell id="2" value="ScrabbleFrame" style="swimlane;fontStyle=1;align=center;verticalAlign=top;childLayout=stackLayout;horizontal=1;startSize=26;horizontalStack=0;resizeParent=1;resizeParentMax=0;resizeLast=0;collapsible=1;marginBottom=0;" parent="1" vertex="1"><mxGeometry x="290" y="140" width="320" height="220" as="geometry"/></mxCell><mxCell id="3" value="- centerContent: JPanel&#10;- rightContent: JPanel&#10;- leftContent: JPanel&#10;- southContent: JPanel&#10;" style="text;strokeColor=none;fillColor=none;align=left;verticalAlign=top;spacingLeft=4;spacingRight=4;overflow=hidden;rotatable=0;points=[[0,0.5],[1,0.5]];portConstraint=eastwest;" parent="2" vertex="1"><mxGeometry y="26" width="320" height="84" as="geometry"/></mxCell><mxCell id="4" value="" style="line;strokeWidth=1;fillColor=none;align=left;verticalAlign=middle;spacingTop=-1;spacingLeft=3;spacingRight=3;rotatable=0;labelPosition=right;points=[];portConstraint=eastwest;" parent="2" vertex="1"><mxGeometry y="110" width="320" height="8" as="geometry"/></mxCell><mxCell id="5" value="+ setCenterContent: JPanel&#10;+ setRightContent: JPanel&#10;+ setLeftContent: JPanel&#10;+ setMenu: JPanel&#10;+ setSouthContent: JPanel" style="text;strokeColor=none;fillColor=none;align=left;verticalAlign=top;spacingLeft=4;spacingRight=4;overflow=hidden;rotatable=0;points=[[0,0.5],[1,0.5]];portConstraint=eastwest;" parent="2" vertex="1"><mxGeometry y="118" width="320" height="102" as="geometry"/></mxCell><mxCell id="19" style="edgeStyle=orthogonalEdgeStyle;rounded=0;orthogonalLoop=1;jettySize=auto;html=1;entryX=0;entryY=0.5;entryDx=0;entryDy=0;" parent="1" source="8" target="5" edge="1"><mxGeometry relative="1" as="geometry"/></mxCell><mxCell id="8" value="Turn Action Panel" style="swimlane;fontStyle=1;align=center;verticalAlign=top;childLayout=stackLayout;horizontal=1;startSize=26;horizontalStack=0;resizeParent=1;resizeParentMax=0;resizeLast=0;collapsible=1;marginBottom=0;" parent="1" vertex="1"><mxGeometry x="80" y="380" width="200" height="300" as="geometry"/></mxCell><mxCell id="9" value="- turnPanel: JPanel&#10;- actionPanel: JPanel&#10;- undoPanel: JPanel&#10;- skipPanel: JPanel&#10;- directionPanel: JPanel&#10;- currentPlayer: String&#10;- placeButton: JButton&#10;- discardButton: JButton&#10;- undoButton: JButton&#10;- directionButton: JButton&#10;- controller: TurnActionController" style="text;strokeColor=none;fillColor=none;align=left;verticalAlign=top;spacingLeft=4;spacingRight=4;overflow=hidden;rotatable=0;points=[[0,0.5],[1,0.5]];portConstraint=eastwest;" parent="8" vertex="1"><mxGeometry y="26" width="200" height="164" as="geometry"/></mxCell><mxCell id="10" value="" style="line;strokeWidth=1;fillColor=none;align=left;verticalAlign=middle;spacingTop=-1;spacingLeft=3;spacingRight=3;rotatable=0;labelPosition=right;points=[];portConstraint=eastwest;" parent="8" vertex="1"><mxGeometry y="190" width="200" height="8" as="geometry"/></mxCell><mxCell id="11" value="+ setCurrentPlayer(String name)&#10;- setUpActionPanel()&#10;- setUpTurnPanel()&#10;- setUpDirectionPanel()&#10;- setUpSkipPanel()" style="text;strokeColor=none;fillColor=none;align=left;verticalAlign=top;spacingLeft=4;spacingRight=4;overflow=hidden;rotatable=0;points=[[0,0.5],[1,0.5]];portConstraint=eastwest;" parent="8" vertex="1"><mxGeometry y="198" width="200" height="102" as="geometry"/></mxCell><mxCell id="12" value="&lt;&lt;extends TurnController&gt;&gt; &#10;Turn Action Controller" style="swimlane;fontStyle=1;align=center;verticalAlign=top;childLayout=stackLayout;horizontal=1;startSize=50;horizontalStack=0;resizeParent=1;resizeParentMax=0;resizeLast=0;collapsible=1;marginBottom=0;" parent="1" vertex="1"><mxGeometry x="390" y="410" width="290" height="240" as="geometry"/></mxCell><mxCell id="13" value="+ ActionState: Enum&#10;- action: ActionState&#10;- currentDirection: Board.Direction&#10;- listeners: List&lt;SControllerListener&gt;&#10;&#10;" style="text;strokeColor=none;fillColor=none;align=left;verticalAlign=top;spacingLeft=4;spacingRight=4;overflow=hidden;rotatable=0;points=[[0,0.5],[1,0.5]];portConstraint=eastwest;" parent="12" vertex="1"><mxGeometry y="50" width="290" height="80" as="geometry"/></mxCell><mxCell id="14" value="" style="line;strokeWidth=1;fillColor=none;align=left;verticalAlign=middle;spacingTop=-1;spacingLeft=3;spacingRight=3;rotatable=0;labelPosition=right;points=[];portConstraint=eastwest;" parent="12" vertex="1"><mxGeometry y="130" width="290" height="8" as="geometry"/></mxCell><mxCell id="15" value="+ actionPeformed (Event)&#10;+ handleBoardClickEvent(C_BoardClickEvent e)&#10;+ addControllerListener(SControllerListener l)&#10;+ notifyControllerListener(Controller event e)" style="text;strokeColor=none;fillColor=none;align=left;verticalAlign=top;spacingLeft=4;spacingRight=4;overflow=hidden;rotatable=0;points=[[0,0.5],[1,0.5]];portConstraint=eastwest;" parent="12" vertex="1"><mxGeometry y="138" width="290" height="102" as="geometry"/></mxCell><mxCell id="16" style="edgeStyle=orthogonalEdgeStyle;rounded=0;orthogonalLoop=1;jettySize=auto;html=1;" parent="1" source="14" target="9" edge="1"><mxGeometry relative="1" as="geometry"/></mxCell><mxCell id="20" value="" style="shape=image;verticalLabelPosition=bottom;labelBackgroundColor=default;verticalAlign=top;aspect=fixed;imageAspect=0;image=data:image/png,iVBORw0KGgoAAAANSUhEUgAAAvkAAAK0CAYAAACZeiLKAAAAAXNSR0IArs4c6QAAAARnQU1BAACxjwv8YQUAAAAJcEhZcwAADsMAAA7DAcdvqGQAAHBsSURBVHhe7d3PqyX/dtf/0x1voKGDIB5sepJIMvAfEOFClDhJxIEDxYE4dqIQTFCRIFGEQAzxx8ChQ50pOHIi0XuFgNyhV+PAoBnYHGkRNM3tXFv6++3Xuef1ueuzar3fVbV31dm13/v5gPqcqnqver9X1d679trV+7PrxadPn/6/u47379/f3d/fPy3V/t//+3+Pf3/f7/t9j39bto4T8psivxr51civjfymyK9GfjXyayO/KfKrnRr34v/74nGu4X/8j/9x94f+0B96WqrtnWQP+U2RX438auTXRn5T5Fcjvxr5tZHfFPnVTo17+fhfAAAAAMOgyAcAAAAGQ5EPAAAADIYiHwAAABgMRT4AAAAwGIp8AAAAYDAU+QAAAMBguBlWQH418msjvynyq5FfjfzayG+K/GrkV7v1/LiSDwAAAAyGO94G5FcjvzbymyK/GvnVyK+N/KbIr0Z+tVvPjyv5AAAAwGAo8gEAAIDBUOQDAAAAg6HIBwAAAAZDkQ8AAAAMhiIfAAAAGAxFPgAAADAYinwAAABgMC8eHh66N8P68OHD3evXr5+Wap8/f378+/Jl/zPD1nFCflPkVyO/Gvm1kd8U+dXIr0Z+beQ3RX61U+O4421AfjXyayO/KfKrkV+N/NrIb4r8auRXu/X85j+KAAAAALgqFPkAAADAYCjyAQAAgMFQ5AMAAACDocgHAAAABkORDwAAAAyGIh8AAAAYzItPnz51fyf//fv3d/f3909Ltb1/57OH/KbIr0Z+NfJrI78p8quRX4382shvivxqp8ZxJR8AAAAYDHe8DcivRn5t5DdFfjXyq5FfG/lNkV+N/Gq3nh9X8gEAAIDBUOQDAAAAg6HIBwAAAAZDkQ8AAAAMhiIfAAAAGAxFPgAAADAYinwAAABgMNzxNiC/Gvm1kd8U+dXIr0Z+beQ3RX418qvden5cyQcAAAAGwx1vA/KrkV8b+U2RX438auTXRn5T5Fcjv9qt58eVfAAAAGAwFPkAAADAYCjyAQAAgMFQ5AMAAACDocgHAAAABkORDwAAAAyGIh8AAAAYDHe8DcivRn5t5DdFfjXyq5FfG/lNkV+N/Gq3nh9X8gEAAIDBcMfbgPxq5NdGflPkVyO/Gvm1kd8U+dXIr3br+XElHwAAABgMRT4AAAAwGIp8AAAAYDAU+QAAAMBgKPIBAACAwVDkAwAAAIOhyAcAAAAGQ5EPAAAADObFw8ND92ZYHz58uHv9+vXTUu3z58+Pf1++7H9m2DpOyG+K/GrkVyO/NvKbIr8a+dXIr438psivdmocd7wNyK9Gfm3kN0V+NfKrkV8b+U2RX438aree3/xHEQAAAABXhSIfAAAAGAxFPgAAADAYinwAAABgMBT5AAAAwGAo8gEAAIDBUOQDAAAAg3nx6dOn7u/kv3///u7+/v5pqbb373z2kN8U+dXIr0Z+beQ3RX418quRXxv5TZFf7dQ4ruQDAAAAg+GOtwH51civjfymyK9GfjXyayO/KfKrkV/t1vPjSj4AAAAwGIp8AAAAYDAU+QAAAMBgKPIBAACAwVDkAwAAAIOhyAcAAAAGQ5EPAAAADIY73gbkVyO/NvKbIr8a+dXIr438psivRn61W8+PIj8gvxr5tY2S38/93M/dfetb33paAwC340/8iT9x96//9b9+Wqpd8vwsR37/EPKbOkJ+3PE2IL8a+bWNkt83vvGNu5lTAQAM6cWLF7Pnv0uen+XI7x9CflNHyI/v5AMAAACDocgHAAAABkORDwAAAAyGIh9A6df+8T+bnQAAwDFR5ANo+kt/8U83JwAAcFwU+QCa8i9O8As8AABcB4p8AE3f//7/vfu93/v+V1NcBgAAx8XNsALyq5Ff2yj5vXr1anKVXt+5/7N/6pt3P/mTf/hpzQ/99m//17t//q9+8+6v/eW/8LQGR6Tf/872+NcYj1P1fWpb9Fz7gduk59eXWuhpqXbJ87Mc+f1DyG/qCPlxJR9A0/c+frz7D9/9rS/Tf7r77tNfLWs9ji0W0J6kKpivRd4XAEAbd7wNyK9Gfm2j5Ffd8VZX8v/4H/0jdyoJ1ZL/fvs7/5kr+Qe25Cp5Lvgde+p6Ledxl7aJl60VZ3PxVvUTY+JyHKPVD8aix3nusb3k+VmO/P4h5Dd1hPy4kg+g6eP3Pt5978v0+Pfj09+nZVwHFTC5WJVY1LrAqYra2OblVrxjPB/12sTrev235G283OrHMRaXHeu/vX4A4Mgo8gE0fec//s4Pp++G+S8Tji0WsaICtVekxmK2EgvdVj9Ltj+Hx57bD1mT5xa5AcDR8HWdgPxq5Nc2Sn7V13Uwjlzs6rH2uupxb7XF9a15OaXN81nVhy1Z35qX3rLnM8diHHqs5x7XS56f5cjvH0J+U0fIjyv5ADA4FTDnFqe5IN6Lcz01563zPDcfALgUinwAGJCK3dbV6Mra+Epv+7V9b5HPlo6WDwDMocgHgAH5qrOLUxeoXp/bpXeluorPFNPqq9cmVf9V3Jyqn1NslQ8AXApFPgAMSkVpnqJWW162GBtjWvOytE283Fqfza2PU1xvS5fzegC4BhT5AAAAwGBePDw8dC9PfPjw4e7169dPS7XPnz8//n35sv+ZYes4Ib8p8quRX039vX37liuVAG6Svo71pRZ6Wqpd8vwsR37/EPKbOkJ+/IRmQH418msbJT9+QhPArVKRP3f+u+T5WY78/iHkN3WE/OY/igAAAAC4KhT5AAAAwGAo8gEAAIDBUOQDAAAAg6HIB3D3Ez/xE4//8xkTExPTrU06/wEjosgHcPff/tt/++qGP63p06dPj1PVFqelcZr0s3XV+jhtPe7SOE3kN52Wxmkiv+m0NE4T+U2npXGaluan8x8wIop8AAAAYDAvvnyK7f447Pv37+/u7++flmp7/85nD/lNkV+N/Grq79WrV49XtHoumZ8c+fgJ+U2R3xT51S6ZH+e/GvlNXVt+XMkHAAAABsMdbwPyq5Ff2yj5Lbnj7SXzkyMfPyG/KfKbIr/aJfPj/Fcjv6lry48r+QAAAMBgKPIBAACAwVDkAwAAAIOhyAdwGLoxzTn03Vrf4GYrW/S1tg/th3l/4rS35xgDALAvinwAQ1BhHG+SM1Kh6n0acd8AAPugyAdwltbVZa/PbV7W3zdv3jzOS1xvmlfxHq9sS47V3/w711UxvKS/uI3zi+scE9eJl3Ob5z1m3m4LHjP3Hceuxm1tBwC4fhT5AE6m4rC6uqyi0utbxbbW67bzbtNy/OsYFe+aWn30xPal/Wlym/IT9xNjYpxVfWhe/CHEy1uZy0mPhcbObXm7/MEHAHDduONtQH418msbJb9T7/joAjKq+otxcV75vX37tmzzvMeNfeZxtfzx48fH+dZxWduflnv5SRx3bp/n8rN8/LRt5rbq8e2Nm9s8L47NcVn1PGgZ5fUh5Dc1Sn75tVu5ZH5y5OMn5Dd1hPy4kg+gScWep7XO2da0rd6ANR3FFvu1lgqQOGWn5nTqdgCA4+OOtwH51civbZT8VOTNnArKcf2Vj2iuv7iN8tP33r0c2zy/ZFwtu/htxeX+Yo5Vf1ru5WdVf5LHrvKzGJuPXzWm5fykN25ui9vF49wbs3o8WkZ5fQj5TY2S36nnv8oe+cmRj5+Q39QR8uNKPoBNqDBs6bUt1etDb9B6o456hepWttivLZ2TTz5+AIDrRpEP4GQqolVY5oJaV4+9PrfNUby4bxWfS660aUzFtcZc21+Uc2qN0aMxxX1FsV/F+er7EnHbNfnkfVkzJgDg+CjyAZxFxWJVXHp9bust53jNq/jMBWjuwxSX+4iW9heXc39ejuukt6x5j5njTOtjnLXiI2/recvbVsueorwMALg+FPkAAADAYCjyAQAAgMFQ5AMAAACDocgHAAAABsMdbwPyq5Ff2yj5bXXHR/0yzJI7u/oXZKr88q/LOD9r5bn2+C3Z57njt3R/JR9nbZupbel+yNrnXz620drjt0d+PeRXI7+2pfltdf6TPfKTIx8/Ib+pI+THlXwAm5l7ozyF3oBVSKtvTVVxfK28TyPuGwDgsrjjbUB+NfJrGyU/FZdzP5tYjevfZo9/VayK4rQsMUZivMT1VvVnsS/J25nj3K557685vupDx893lI19SIx3ge62Sj7Ozi3Suur4SYz1tm6v+rHcX461pc+rpXHC63eK/GqXzO/U819lj/zkyMdPyG/qCPlxJR/AWVqFo9drikWnad3Dw8PX2t1P1V8U2z2OillNeSy3a3KbC1/3E2NinFV9aF5yX1tZklM+fpK3ix9oAAC3gyIfwFlUSM6pYpZst4UtxtkrVxXkcYrjzI35XMcPAHCdKPIBNMUCdHSX2FcV6nHKTs3p1O0AAOOgyAfQ1CtAL2mP4jXu61b7e06e2vbUfOJ2/joRAOC2UOQD2N2pxa6K1Pydche/e9rjQ8Q5zsmH7+QDwG2iyAewCxXiKk5PKcpjUasr0SpUW315HMVoWjOWx4m5VmP0uIh2X1HsV3FrrqrHbdfkk/eFK/kAcJso8gGcLBef1XJVoPa2q7ZRoVqtN61XTC5oc3xczv15Oa6T3rLmPWaOM62PcdaKj7yt5y1vWy17ivIyAGBcFPkAdhGvJmuiwAQA4Pm8eHh46L7zfvjw4e7169dPS7XPnz8//n35sv+ZYes4Ib8p8quRX039vX379vE313sumZ8c+fgJ+U2R3xT51S6ZH+e/GvlNXVt+3PE2IL8a+bWNkt+S77JfMj858vET8psivynyq10yP85/NfKburb85j+KAAAAALgqFPkATqbv2i8Vv5+f9dpOtUVfb968eZpbJo4Z90mTf4VnT3F8AMBto8gHsDsVn/rn8OqfxGObppEK1bhf+nWd5yj0AQAQinwAm/EV61jMumjX3zgvulKuAjiqCn31F7e32F9rTNN8jpMYm+Orv1vymLlv51i1idev/ZcGAMDtoMgHsAkVnb5ircnFqYt4/Y3zPbFdBa/68/a56I3jujj29v7rmBxnsb3KO/7dShxTk8e1KieJ6/WLIHk7AACEIh/AVVOxe64t+qioAPfkDys2N+ZeOQEAbgNFPoCmWKQu4WI2Xyk/Au/Hc+amQt1TLPDNOWlaw9vwdR0AQMuLL2883ctF79+/v7u/v39aqu39O5895DdFfjXyq6m/V69elUVoVI0br057fmlcno9yzMePH7/qr7V93o9enFT9SWu7itqVm6i/3rZLx837Ia1+8+Ob+5Tq8ahsHSe8fqfIr3bJ/E49/1X2yE+OfPyE/KaOkB9X8gHsQgXnnHfv3k3iqkJ1a3pTP5Ilx6rlnG0BAOPijrcB+dXIr22U/FQozpwKynH1lZG4XfzaSV7vZcdo2fm1thPnZ61+837EcSSOoQ8R3o/Yh8Tl2EeOs9hvqx9pHT+J/VePR+5r6ZhSjVvZOk54/U6RX+2S+Z16/qvskZ8c+fgJ+U0dIT+u5AM4WX5j1LIK6HwlPsZpvtquWm/qr7VdFMfN8V7u5SZxWb9e4+UcZ97fXj8tiqn6X5KjJuUX5TgAwO2iyAcAAAAGQ5EPAAAADIYiHwAAABgMRT4AAAAwGIp8AIcSfzkmzrcoRlP8BZ5zLRl3zto+Yrz2xfvlaW9bHj8AwOVR5AO4Wip+/Usz+kWakQpV75en5yj0AQDj4I63AfnVyK9tlPzOueNjLKzVR4zLbab1WnZ+Xs7xWtYdZX3zqqoP87jV3WJN63Oc271NjNfNupyf5b6r/HK846T1uClGsa3Hw+2WxzDHuT2P29tOsXPPq9bzoMLrd4r8apfMr3q9ZZfMT458/IT8po6QH1fyAZzMBaWnWED22loUF/+K3oBVfK7tQ+ZyiO1u03z8O9dHlZ+3zX+34pz0ISSOazFnfwCRuL7aDgAwDu54G5BfjfzaRslPxd7MqaAc11+XiRyX+4yxnnd+VZvnVYyKxm3FyZL8Yn9L83vz5k037pz8Isf78chiXzZ3/ETLyjHnJ3k7x/XM7Uc0yutDyG9qlPxOPf9V9shPjnz8hPymjpAfV/IBNKnw81TRG+NczAgusY86tnHKlIs+gKzN6RL7AgB4fhT5AJp6RabFmCMUjnvkEPdR0xbOyVPbKo+Hh4fV+cT9WLstAOB6UOQDONkli3oVqHn8Jf/sfq5L7nPl3A8LAIAxUeQDOJkLbU+xwF7S1vq6SbWuEsdQge/vx1svhzmKly368N/onH69bf7/BeacMyYA4LpQ5AM4iwpFT9lcm79uEtvjclwveVkcnwt8c3vetrec470c10lvOcbnOHNMbm/tS6RtdPw8b3N9eby5OADAdaPIBwAAAAZDkQ8AAAAMhjveBuRXI7+2UfLjjo818psivxr51a4hP85/NfKburb8uJIPAAAADIY73gbkVyO/tlHy446PNfKbIr8a+dWuIT/OfzXym7q2/LiSDwAAAAyGIh8AAAAYDEU+AAAAMBiKfAAAAGAwFPkAAADAYCjyAQAAgMFQ5AMAAACDocgHAAAABvPi4eGheweIDx8+3L1+/fppqfb58+fHvy9f9j8zbB0n5DdFfjXyq6m/t2/f3n05FzytqV0yPzny8RPymyK/KfKrXTI/zn818pu6tvy4421AfjXyaxslP+74WCO/KfKrkV/tGvLj/Fcjv6lry2/+owgAAACAq0KRDwAAAAyGIh8AAAAYDEU+AAAAMBiKfAAAAGAwFPkAAADAYCjyAQAAgMG8+PTpU/fHYd+/f393f3//tFTb+3c+e8hvivxq5FdTf69evbr7ci54WlO7ZH5y5OMn5DdFflPkV7tkfpz/auQ3dW35cSUfAAAAGAx3vA3Ir0Z+baPkxx0fa+Q3RX418qtdQ36c/2rkN3Vt+XElHwAAABgMRT4AAAAwGIp8AI9evHjRnfRP2pqqtjgtjdP05s2bcn2cth53aZwm8ptOS+M0kd90Whqnifym09I4TUvzA0ZFkQ/gkb6T2pv06xOaqrY4LY3T9PDwUK6P09bjLo3TRH7TaWmcJvKbTkvjNJHfdFoap2lpfsCoKPIBAACAwVDkAwAAAIOhyAcAAAAGwx1vA/KrkV/bKPlxx8ca+U2RX438ateQH+e/GvlNXVt+XMkHAAAABsMdbwPyq5Ff2yj56WfkZk4FF81Pjnz8hPymyG+K/GqXzI/zX438pq4tP67kAwAAAIOhyAcAAAAGQ5EPAAAADIYiHwAAABgMRT4AAAAwGIp8ABf14sWLp7kf0jpPWzm3ryPmJGv7iPHeH036hRFNe1ubLwDgNBT5AA5FRaB+zs7TcxSec3JOIxWq3ifdDEgTRTgAjIE73gbkVyO/tlHyW3LHRxXbHz9+7I4bC/LcX9WW12k5b1flV/UV49zuthivfRDFWu7bfbx79+7u7du3X2s3x/nxWNKfuM3L0lsnS/twXJSfLzEmzsf9iH3kMXKc2+M2krezOKbk/Fq2jhPOL1O3mF9+zlcumZ8c+fgJ+U0dIT+u5APYhIs3FdGaYpHnNk9uUxEtc2+wLsyl1ZfFdrdpPv71m3qOM/fRE9uX9JePi7f3X49ZHT9xe+w/Hz//3UocM45rVU7i9cqv2g4AsD/ueBuQX4382kbJT0VY61RQfX2jivVXWqr83GZeVn5v3rz5qi3HSe6v1Ve1HzF2bZzk/CprxpUYe0qceHlpflIdP81nvb4Ur6Jdluyzn39Vm+X8WraOk6WvDyG/qVHyy8/lyiXzkyMfPyG/qSPkx5V8AF168/MboAq81puh1quA0xumpkxtns61RV9b9LE15dI6fnvx46vH1gV8dOpxUrw+gKzdDgCwDYp8AJuJxWIu7lxMelojF73n9GXn9rFH8ao8fPxOyalyzgcG7eOpx0jxDw8PJ20LADgfRT6ARaqrvNGaorcVq2Iwt6lI7Y29RbHd66PKSct7F65b7NeWzsnnaPsCALeAIh/AJlwM++smsQh2m6dcIMciMMfmAn+urx7Fi/pc08fcmGv7ixQvHqM6fnPch/9Gyk39qU3Tmn6d06nb+es6a7YFAGyDIh/AZlTMqajMhbmozVPUW5fXW6s9jxvbc7yX4zrJy9aKt1Z7bznHa746fkv7yHGm/mKcteKjuF2Mn+tLy/66TpSXAQD7oMgHAAAABkORDwAAAAyGIh8AAAAYzIuHh4fuFyQ/fPhw9/r166el2ufPnx//vnzZ/8ywdZyQ3xT51civpv7evn37+P3pnkvmJ0c+fkJ+U+Q3RX61S+bH+a9GflPXlh93vA3Ir0Z+baPkt+TXXPbKL9/xtqL/cdT9tX6tJY/bi6v2N47ttnMf35jDqcevtR9S5Rfj4z5Zq69T88vi+KO8PoT8pkbJ75LnPx7fryO/2qlx8x9FAOAZ6c02Tirw9SZsc2/Gp3Bh6qkqjq+Vf61nxH0DALRR5ANYJBbaLSogFVfFqs2T6Sq+rCk8c2zsszeuOcbr9FfFb1QVw+4nr4/9xTbPx3WKzXESY+M+xPXx75bUZx5X4pjVuF5ftQEALo8iH8AmVOypOPaV41j8uc2T2/w9WK07Rew3F6kS2z2mcpO5MWN7K3/T2LlN8/GvYnpX1D2GYrwvuQ//3UrcrziuxfaYb9zf3AYAOAaKfABdKuBcxKm4W1rQqfg7hcfz5OJ4ThVzag5rLclvzl656vj5cdMUx5kb87mOHwBgexT5ALpU6LnYUzHbKvy03kW5psxFpqYejxfHHEUstp+Ljp8fNx/TyPlUj1mPt3vOfQEALEeRD2AzKiJdVObiz0Vmq9isKG5t8bmVPYrXWGwvPQZzzslT2zoX5bZG3A9NAIBjocgHsMhcEbim2NyjgD71w4AK1JyPi9897XEMznHOh6mj7QsA4Mu5+csbd/ed7P3793f39/dPS7W9f+ezh/ymyK9GfjX19+rVq9kifsm4sVDM/VVtyk83ohGtU0zeLueXY9zvx48fZ+O07P6k6ke8Ph6/ql20XmP7uMRxvU0eV3IfXq72V7Qc48T5OUZyv8pNWo+bt11z/GTJvozy+hDymxolv/i8b7lkfnLk4yfkN3WE/LiSD2AzeqNUsejCMlKbpyiuy20W++ttH1Vxpv5a/eT11mrP+xrbc7zHzX3k5by/bs9x5pjc3oqP4nZzxznydnNxAIDL4I63AfnVyK9tlPx09XXu6ymXzE+q/vLXRFRgHim/6IjHLyK/Gvm1jZLftZ7/IvKr3Xp+XMkHcLX0xuyJK8gAAPwQRT4AAAAwGIp8AAAAYDAU+QAuKn6v/pyfYtT3ajVVfWidp61s0dfaPmK85t+8efP419PenmMMAMA2KPIBXD0Vn9UvvYja4nf39UFgFA8PD1/bN4pwAIBR5ANYZElxrCLTV9QztXkyXYmWpcVp1Yfn47hep78qfiN9EMj5uU9vZzG/2Ob5vC7HiZfzcfH6/HdL6jOPK3HMalyvr9oAANeBIh/AJlQQqqD2FfVYILotX3HWlWjJhXil1Ye3jVfy5/pznLT6tdiex/RfFdGOiXGm5Xxcch/+uxXnncc1t2uKbXF9bgMAXA/ueBuQX4382kbJr3fHx3wVWKpYxWl9lZ/bzMvKT3e8dVuOE/eXc4yxmveNnHp3bZWcX47J/c61VcevFSdr84tyv1nuS5aMq+Xq+Eke03FbPv9krr+t44T8pm4xv/ycr1wyPzny8RPymzpCflzJB9ClNz+/AarAa70Zar2KQL1hasrU5ulUW/Sxl0vk9u7du68en+pxUS6tx6PnEvsCANgWd7wNyK9Gfm2j5KdibuZU8Pi1DRWSS/OLfforIJny0/fee3FVf5lzk7lx8/7mmLi8pG3u+MU4WZKf6DjPja+vO7Ue3zXjark6flmM2/L5J1s975fGCflN3WJ+vee8XTI/OfLxE/KbOkJ+XMkHsEh1pThSAbjUmtiWJX3ojTvH6Q19bl/OtcX+bUn7fKqj7QsAYBmKfACbcEGtgjJfGXObp3zVLBaSMU6TC9S5PiK1W94uF/hr+s0UL+rz3D78NzonN2+79kPNOWMCAI6DIh/AZlQQqqCsikq1eYriuhjjKfYV10dxudVerbdWu3/9x2J7jvdyXCe95Rif48wxub0VHynGxy/Gz/WlZU9RXgYAHBdFPnADfv3Xf/3ud3/3d5+WAADA6CjygRvwS7/0S3d/8A/+wbu/+lf/KsU+AAA3gCIfuAG/+qu/evcjP/Ijd//kn/yTx//bn2IfAICxUeQDN+Dnf/7n7370R3/0sbDXb91T7AMAMDbueBuQX23NuD/7sz979+1vf/tpDY5Ov7zy5//8n7/7p//0n87+Astez78ld7w9wh0pY27+xZ9o7/yqY8P5b4r8auRXU39HOL+0bD0u+dVGzY8r+diUCnydLHuTriT7zqlzU76jZzUt7W/rOE3XlN/v//2//+lR+gG9sf3Nv/k37/7BP/gHT2uOIRfQa+/W+lx8XP14VIU/AACXwh1vA/KrrRlXhc7cz+xdMj858vGTPfL7R//oHz0W9CpGVTT/jb/xN+5+4Rd+4e7HfuzHHvtb8rjpN9NV1PbGVYzl/qq2vM7LcdveOvH6uB+tbbTs4xf32W1ZfHxjTJyv+hPnIFqf49wet5G8ncUxjdfHFPnVyK+m/pac/y6Znxz5+An5TR0hP67kAzfgr//1v373+fPnu7/9t//244nnl3/5lx8L/C25CPUV7lisus2T2/w79PENNrbrr/qKWn1ZbM9tLYrd0qk5at7Hr9oOAIClKPKBG/Arv/Irj98PPKW4V6HpYlNXvJYWnipSL+G5xvVx0THJVwLncrjUsQEA3A6KfOAG/OIv/uLJV+5VkLoo9RXmitbHojdzUazpXFv2dSofF195z07N0cfvkvsGALh+FPkANhOL3lykuij2dI4t+2o5p8jWtqfm5+O3574BAMZHkQ9gkepqdbSmKJ6LVXHrQnnOOcX4czgnv6PvGwDguCjyAWzChbm/bhILdLd5ysX7mmJ2rq8Wb+f8omp8xb9582b1OBJzXLud81u7LQAAEUU+gM2oKPXXTTK1eYriutgW53N/3ibGSBUXadn5xbYcZ/r1H7VV/cyJ28X4ub6q/CQvAwDQQ5EPAAAADObFw8ND9/LQhw8f7l6/fv20VNPvb8vLl/3PDFvHCflNXTK/t2/ffvXb5y2XzE+OfPzkEvlt+bjtkZ8c+fgJ+U2R3xT51S6ZH+e/GvlNXVt+3PE2IL/amnHzd7Erl8xPjnz85BL5bfm47ZGfHPn4CflNkd8U+dUumR/nvxr5TV1bfvMfRQAAAABcFYp8ABelX5GJ/Ks0nrYQ+9FVuzkeW7+us5Ul485ZezxivPcpTnvb8vgBANahyAdwGCo89c/mcdqiOF4j5qDv6T5HMfxc4nHVNNK+AQC+jiIfwCJLr4ArropVmyfzld41xWbVj+Qx3Z7/WtWHllX8RlUx7G2r9f4b2zwfc3RMjBPH5DbP579b0th5XIljLn1sAQCXRZEPYBMq8FQQ+3feY8HnNk9u8y9aaF2L+rJWPz3uO46hQvWUPiTnkIve2O6+NS/el9xHzqHKT/PV361oTP8+fxzXnLNi4j7P7QsA4DIo8gF0qWhz4abibmkRp4JvLReJcdpD/OCwtVP2O9srv3xsY65zY26xXwCA50ORD6BLxZ0LPF/prWi9Ckd9EIhXei0Wlz0ez1PV1wiWHo8t5WOb+UPc2pwusS8AgL4XX960u5dn3r9/f3d/f/+0VNv7dz57yG/qkvm9evVq9orgJfOTIx8/uUR+Sx43FYAfP35cnF/sU9tW/Ss/3YimFxfHze1xOcZ5uep3aZz4+PViYn9VW9yuFRfFOC+3xs6Pb253XzL3GC8dNz9f8phRr822ft4vjZNRXr9CflNL89vyfWuP/OTIx0/Ib+oI+XElH8AiLhZbVNAttSb2OemNPue2pFA919GOxzn5HPWxBYBbwx1vA/KrrRlXb/AzT6mL5idHPn5yify2etzi1zVyf1Wb8vMv7Hhd/sqHC2yP2xrD+xHlPrWsefUZ+4v9SGsMi+0xv9xXXPY2eVnyNq38Yh+a1/+4nB/f3K8ft7nHOB4/9x/H9Xz1fMljWtyuZcnzSraOE84vU7eY31bnP9kjPzny8RPymzpCflzJB7AZvVGqQHXhG6nNU5TXxbi43nptGrdqj8s5txhnjvev/2Ruz9v2lvNxafXRyy/G5+3MMbm9FR/5+EmMz9tWOXqKWscPALA/inwAAABgMBT5AAAAwGAo8gEAAIDBUOQDAAAAg6HIBwAAAAZDkQ8AAAAMhjveBuRXWzPulncOFB7fqT3y446PNfKbIr8a+dWuIT/OfzXym7q2/LiSDwAAAAyGO94G5FdbM+6Wdw4UHt+pPfLjjo818psivxr51a4hP85/NfKburb8uJIPAAAADIYiHwAAABgMRT4AAAAwGIp8AAAAYDAU+QAAAMBgKPIBAACAwVDkAwAAAIPhjrcB+dXWjMsdb6euIT/u+Fgjvynyq5Ff7Rry4/xXI7+pa8uPK/kAAADAYLjjbUB+tTXjcsfbqWvIjzs+1shvivxq5Fe7hvw4/9XIb+ra8uNKPgAAADAYinwAAABgMBT5AAAAwGAo8gEAAIDBUOQDAAAAg6HIBwAAAAZDkQ8AAAAMhiIfAAAAGMyLh4eH7h0gPnz4cPf69eunpdrnz58f/7582f/MsHWckN/UJfN7+/bt3Zfn1NOa2iXzkyMfP7lEfn/uz/25u9/8zd98WgMAt+Ob3/zm3b/4F//iaal2yfOzHPn9Q8hv6gj5ccfbgPxqa8bljrdT5NdGflPkVyO/Gvm1kd8U+dVGzW/+owgAAACAq0KRDwAAAAyGIh8AAAAYDEU+AAAAMBiKfAAAAGAwFPkAAADAYCjyAQAAgMG8+PTpU/dHzd+/f393f3//tFTb+3c+e8hv6pL5vXr16u7Lc+ppTe2S+cmRj5+Q39eRXxv5TZFfjfxq5NdGflPXlh9X8gEAAIDBcMfbgPxqa8bljrdT5NdGflPkVyO/Gvm1kd8U+dVGzY8r+QAAAMBgKPIBAACAwVDkAwAAAIOhyAcAAAAGQ5EPAAAADIYiHwAAABgMRT4AAAAwGO54G5Bfbc243PF2ivzayG+K/GrkVyO/NvKbIr/aqPldfZH/J//kn7z7d//u3z0tAYh++qd/+u43fuM3npZql3z9cpKeIr8a+dXIr438psivNmp+V3/H2xcvXszeYRW4VUteH5d8/XLHwinyq5FfjfzayG+K/Gqj5sd38gEAAIDBUOQDAAAAg6HIBwAAAAYzZJH/a//4n81OAAAAwKiGvZL/l/7in25OAAAAwMj4ug4AAAAwmGGL/N/7ve83JwAAAGBkV38zrG984xuT3wHXd+7/7J/65t1P/uQfflrzQ7/92//17p//q9+8+2t/+S88rTkO/aZ5Ze/7AMRx14wVf4PdfWyV6yWOxdb7cATap63uQLzH65ebmUyRX438auTXRn5T5FcbNb9hr+R/7+PHu//w3d/6Mv2nMP3W4/qjUnEZC8y8fCS5CN8rV/frvlvFPwAAAH5oyDve6kr+H/+jf+RO5aBaYlmo5W9/5z8f8kq+5SvKveVc9MZ1eb4yF9vr36ptqxiJcXmbqGrbaowl241C+zS3P5d8/XLHwinyq5FfjfzayG+K/Gqj5jfslfyP3/v4eNXef78XlkekQi4Xc7HAy4XtErHojf3EcfKY0touiv3ktiW8/dox/Le3HQAAwLUbtsj/zn/8nbvvfPfLVPy9FS5itxIL43Od208s0FtF+tb7DwAAcC2GLPL1VZy5CdfBRbwL+Vi4V+uWin0CAACMZtgr+ZgXi9zW/KWpgI+TOcdTCnxp9QsAADACivwrs0cBvrTY1dhH+gCwhRH3CQAAgCL/Crj4VjH6nFed47guhL0utmW97bZSjbHEc+QGAABwaRT5B6SiMxeecV1r3vK6Kkaq9Xmdl/N6ietyu5db6y0vW2t95Jg4xfXWWm6tBwAAuHYU+QAAAMBgXjw8PHQvXX748OHu9evXT0u1z58/P/59+bL/mWHrOHnz5g1XX4EGfSXpy2v8aal2ydfv0c8v5DdFfjXyq5FfG/lNkV/t1Lgh73gL4AeWvD4u+frljoVT5Fcjvxr5tZHfFPnVRs1v/qMIAAAAgKtCkQ8AAAAMhiIfAAAAGAxFPgAAADCYqy/yf/zHf/zxfy5kYmKaTnp9AACA23P1Rf7v/M7vfHUTo9b06dOnx6lqi9PWcZr084XV+jhtPe7SOE3kN52Wxmk6en56fQAAgNvD13UAAACAwbz49OlT90e0379/f3d/f/+0VNv7dz57vvGNbzxe1ey5ZH5HP37kNzVSfrw+psivRn418msjvynyq5Ffbe/8KPKDPfLjSThFfrU98uP1MXUN+f3cz/3c3be+9a2nNQDw/H76p3/67jd+4zeelmp7nP/kyOdnuZb8buKOt5fMjzuyTZFfbY/8eH1MXUN++nA297gBwJ54/5i6tvz4Tj4AAAAwGIp8AAAAYDAU+QAAAMBgbvY7+dV25+anPjP9jvqex2/tfsT4Kt/qWJ57XCKN6f8RdK4/4Tt3U2vyq54f2SXz4/GdUlz1nfxf+8f/7Gmu7a/95b/wNAcA5+H9Y+ra8uNK/sb0gojTmzdvnlqOKd/MqSr8ARzDX/qLf7o5AQAQ3WSR70I2/7W43IrVlba83RLaxlOk/qRqE61TjOMq1Xbnao3rsfS3GtfrqzYAp9EH8SgvAwBgN1nk+41x6RukCtUYq4JXXznRujVFrPvxlLeN7bHN6zWmprydKWZLc+O6vZVv1QbgdN///v+9+73f+/5XU1wGACC62Zthxe0877hXr15N2kzLHz9+fJxXf7mf7N27d83jF8eNY0ru13HSy096xy/3m+W+ZO1xmduXePzmcLOLqTX55cepcsn8eHynFKfXkD4gR/pO/p/9U9+8+8mf/MNPa37ot3/7v97983/1m3wn/0y+QLElX+RY02/rwsjWuUkea4sxzjmO8XidcuywHR1/3j++7tryG/ZKvoobT89JL4g4ZafmpXi98Wvakj6EzOV7yrin7ieAtu99+YD8H777W1+m/3T33ae/Wtb6W5AL0qjXtsS5229JRW0sbPPyVmIR7f5HOY69PI70WAN74td1wrzjVJjmNtOyi2H1V/UTxeNX9aVljRvHlKrfuf2wGNca0/O9X//J4y49Lnlfohi35PHl/56fWpNffpwql8yPx3dKcdVrSFfy//gf/SN3Kk/Ukv9++zv/edgr+XoeWz4uVVtcJ3l9K87W9JP7lF57q89Ka9tqueq3am/1Van6lFa/VfxcHzbXt6zpK65znPXa8EM6TnPHZ4/znxz5/CzXkh+/rnMh+aS0xjnbnkpFx6kukS8woo/f+3j3vS/T49+PT3+flkekc4fPHyo2YsHRauuta4n9rulHy7ktblfFS6/Pc8W+TWOsHW9JrrnfOG6cl6qfal3Lkm1iW46Lsb02YCQ3XeT7ha0Xu+ZVyJ5TzM7xOJp8glki59fa1vsTxTHPGbf6Kk/LOWMCaPvOf/ydH07fDfNfptHo3CE6f+RzSK+tx7E+N8ma7bO5bVvtp+Z/qr3GeI7czxWPsY+79dqAEdzs13Uqe+THPydNkV9tj/x4fUxdQ369D/O3JBZe+Xi02lrFWhXTW9frpxU71ya5X6+vLO1Ly7lN1sZHa7Zd2mZLt6/msxyXxe1ye68NPzg+c8dlj/OfHPn8LNeSH1/XAQAckgoMFxkqOHJR1moTt8c4iXF5m0qrn1PlfpbkgB+Kj0U8jll8TuTYXhswEop8AMCh9QqxuSItFnRVYed1c2I/S+X42Ecv5yXW5pJV+x/zO7olucbHOeu1AaOgyAcAXIVeUeY2/41F4JJiLm4nW/ST40/t03p9n6KXT6+tJ27Xckrfa7c5tQ0YCUU+AGAoKuLiZKcut9Zbb7nVltdXqpi4rjVveV0vZk3bmuXcZl6f2+Nyq621HsDX3ewdbytzcR5Lcbo51JJfnOkdP/WX9frcYj/y8Zp7fBUf72Sbxb62Os7Rcz6+tiY/Xh9Ta/I7+vG7VH56rVG0ALgk/YsJ7x9fd235cSX/RC58z6UXkPrSpPmq8D8S5Rino+cLAABwi276JzT9vT5RHzEuf+cvxrq4jePmvsz55f7EbXncVr8aV2Jc1a/6i8V3Nabne3e8FcV43LzPEvtbMq7+ivqMj4fXS7VdT+vxzbaOk5FfH9ke+fETaFOKq15rAPCceP+Yurb8bvZKvp+8nmKRGdu8XvPxb9TrS6r+lsj9xgJaWv0qTkV01RapbUtz4zpfxcR9iftRbQcAAIB1brbIVzG5xNK4nl4fKmhV8GpysWtzY2+R21rKMU4xB1/xb7lEvgCQz1ue9nbqWDH+lO2XcL9b9n9OPzGPLXMCbtmwRb5PEr0TxZKYvanwVXHsK+DZqTn6Q8PW+6Yc45SdOq632TpfAMjnq9b56wjyOXCPXD1G7Pvccy/nbuB4hi3yffJqnRx1QpqLubRzcoxfm1mz7TknahX4cdw1Yq5rtwWAU+h8F895cdnz1bo8X3Gbz2c51tt78jqL6/L6OFlczm2R18fzbD7vevvcT1zO85bbPVlrfU9rm9Z6AD/Ar+t80Ts5HOXEcU4el9iHa8sXACq5ABado7zulPOVt4l9xz4ljymt7aLYT25b4pQxPC9xXqp+qnUtS7aJbQB+6Ka/k68ThaZ8cui15ZOLxPhqm1P18ujR1fT4tZnWtmrLztmXOO6a7c4ZEwCe29bnKPW3VZ/Pcf7kHA1ch5u+kh9PrPmkFdssrlNBG7ktb6OfqIxie46txD7jmHnbvNz62kxczm3m7XrbtnhcifF521OPHwDg9vgiEIDl+LoOAAAbisVoax7rxAtB+WIQgNqLh4eH7qvlw4cPd69fv35aqn3+/Pnx78uX/c8MW8fJmzdvZq/2XjK/ox8/8psaKT9eH1PXkN/bt28pZHbgItvHNi7HAjwux8eht300t22vnz3aslP7ObXNlm7fmpdeG7al48v7x9ddW343fcfbbI/8uCPbFPnV9siP18fUNeSn/7eFwmV7VVEY17XmLa+rYmTNttaKXbpdKy72G7X6kVPHiMu5zZb03erXqm2wPR3fuWO7x/lPjnx+lmvJb/6jCAAAA1DBkouWuK41b3ldFSPV+rzOy3m9xHW53cut9ZaXM7dXca22Ncu5zbw+t8flVltrPYAaRf6Z8hWGFsXlaW9rx4jxMU9dVdS0t7X5AgAAoEaR/4zilQhNRy9qnad+CUcTRTgAAMB1uNkiPxescdnz+lsVtr0r296m2m5Oa1svt8ZtbRf12k7VGtfLVZt4P6o2AAAAnI8r+Q0qQKsr7ppvXdmO2+Tt5qjo7W3bGnfpmGrb0ty4sT22ad77UW0HAACA81HkN6gAnbMkJlJBG6e4vYrenrVjbcF5+sp7zGEun0vkCwAAgB8YtsiPxfRRqPCNU3ZqzqduN8d5+sp7duq4fF0HAABgXy++FG/dS67v37+/u7+/f1qq7f07nz0qFueuglf95e20/PHjx8f5V69eTdq8HOPUX27L27179+7x+OW2SPnNjal570eMrfqt4ioxPy9X/e55/KLcpxz9+Tfq66OyR348vlOK02uouhAAAM9FF+J4//i6a8uPr+sckAqzU52z7amuLV8AAIDR3fQdb/PXReLV5thnHiNv12rTeh+/Xp7OzwWv4mK852Nc7CuPWcW1xs/bWoyfO36K0/wpx68XJ9zRbmpNftUxzS6ZH4/vlOLyawgAnhvvH1PXlt9NX8nXkzdOlp/UeVnFrKa8nXhdtX5O3C7Gz/Xl7Xpxuc0eHh5mt22J28X4ub7i8YvyMgAAAE7D13UAAACAwVDkAwAAAIOhyAcAAAAGQ5EPAAAADIYivxB//SVqrc8U5+nNmzeLtzvH2jFivHON0978S0IAAADYHkX+Cmt+/UWxmvzrNc9ROJ/D+Xo6er4AAABou9k73kq8mqw+HNe6Y6v/Ks4x7qOKFx+/uE68nVR30K369bjWGlPz6rN3/Byv/N6+ffu1viT2t2Rc/ZU8rtdL7i+PWeGOdlNr8ouPY8sl8+PxnVKcXh/6sA0Al6KLfbx/fN215XezV/Jd/HiKxWjUK5JiH63tK3nsWEBLq1/FqYiu2iJ/aNjK3LjOVzFxX+J+VNsBqP3ET/zEV1+dY2JiYrrE9OM//uNPZyRcq5u94221neNUjKotx3hZcY6xGKv5LMZmilcRrPxaY3recV6ObZ5fcvwcr8dX/99AFnPI/fXGjccltomXq+PXwh3tptbklx+DyiXz4/GdUhyvjynyq5FfG/lNrcmP94+pa8tv2Cv5enJ6quiJ24tpbbeU+tfk7+RnvbF79OZ/ynZznK+n7NRxvc3W+QIAAKBt2CK/V7BajMlFaGv9FtRnHHsNXck/Zdtz9kMFfhx3jZjr2m0BAABwmpv9Tv4Wxful+9hi/LWuLV8AAIBbdLNFvq4qq+j01LrK7LhK7GPNVepTt/P/vDq3rWKyOOY5467Z7pwxAQAAcLqbLfJFRaenqLWc18uS7StxOxXRNtdX62szcTn2F3m73rYtHldifN42j612T1ErRwAAAJzvpot8AAAAYEQU+SfiSjQAAACO6qbveJvtkR93ZJsiv9oe+fH6mLqG/HRTuSUXEuby0+Pvm+PNjetYxfWeN2uOn/qJYp8eY66/pXGW43IOpj55/k2RX+0W8+udB+yS+fH4TuU4ruQDwID8Bp3vqL3E3Bv7Ehr/3bt3j315ahXce4s5eAKA0d3sHW8z9eMTv96Ien2uyU/HT3eUdX9VvmuPS/VGGftcm9+Sx3fumEgcN+6n5jMd6y3zk9jfFsd5z/wqe+RXHYfskvkd/fhdKr8lrzc9trrZXis/P/b6m19vWifVa9TbxPFju8+T6s9xuT/Rupxfjpd43jX3szRO3Hc+zl5f0ePr87PHyn1W+yue93Y5v9aY1/D8E/L7ulvMLz7fWy6ZH4/vVI7jSn5h7kl9jq36Vj9x8hvNUcVc9WYY36gBPB+/ccfzhubFhWoU4zXl127VX4tiqr/q031oynnNxYljTrFmH6K4nXKL+a3pBwD2cNNFvk7C1Yk4rvN8XOeTeWvbuF5XiaTqR7Ts/qIYn7dZwvnlbef69fqqzXptp2qNG49fNa7WVccPGFV8Lej10XpdqNCU3odqx5yj1YfWO7+Yc6X6cLGlmEOVy6nHIW+3934AwBo3W+TrJK8TtKZ8ws8c63mdyDXlbas+9c/V4u0jx7u/2JdU/S2hN3TnV20b+3URLXF9tZ2pbUtz48b22Ob1reMHjMivBdH5xfOZXg+aLvkB2Pl56r1GnW8vRpbGRTEHTwAwOr6u88XcCf+UN4Qt3kR6fcQ3Ok0xVgVvzxa5rRVz9YcQm8vnEvkC106vG01z54O96LW+lM4Jznfu9R7j5mIB4JYNW+THonJrekPStEffS8290Tm/tTl6m633LeZaFR2njqt4Px7ALale96LXRG5r/UvX2tfbc1iT0xHzB4CjGLbIj0Xl1vSGqWmv/s+lgvfU/LzN2m3PebPVtqeMKYqPjweAPr1O9Jrz6y6qPizHeE16rS2h7fJ38vN4WifqsxUjVVyOdUwlbuNpCfXviwhLtwGAo+DrOmdqnfiP8oZwTh6X2Idryxc4mqpIlrhe8znOH5Yltzm+Wh/l5fyd/Civi8ut9eLluE7yssX4OFmcl7zs4zK3nY+d5XYAeG43W+TrBKyi0NNS2i5e2cknffeXT/DVGI53f3mbU+nNpspvTsy/t63aMsW2jsucOO4p2219/AAAAK7di4eHh25l9OHDh7vXr18/LdU+f/78+Pfly/5nhq3jRP8c7F+wablkfkc/fuQ3NVJ+vD6mriG/t2/fzj5uwvGbIr8a+dXIr433j6lry4873gZ75Mcd2abIr7ZHfrw+pq4hv6X/MsXxmyK/GvnVyK+N94+pa8tv/qMIAAAAgKtCkQ8AN0xX60z/grCnONacGLtmux71E6do6RhL4wDg0ijygRv1u7/7u3e//uu//rQETH8hZksqjvVP/6cUyUu+ujTH48cp3vEbAEZDkX8A8eqZ3ojyFO19pW2JU/PLsbgMFfd/5+/8nbv7+/u7X/qlX3pai1G0XpuS13vef/Pr1/FxG3Fc1ZaXl1B/cTvP57+mZU+Rl3N/cxwbt9G8pnhMlsYBwBFQ5B9QvtoU31AuTbmcmp9icTku7vU/AukKvv7v+1/91V99asUI8uszvjZjm9drPv6Nen1J1Z9oeQ0Vx/4d+i3yqvpr8S+HeBz/jWP4J4llaRwAHMFNF/k6QVdvEFFs97xjvJxjPEUxNrZ5/tQ3B/cX+5zbhxwvXs5/12gdl6rPGBvXW1xftWO5XNx//Pjxcd2P/uiP3v38z//8UxRG4OJzztK4njV96DXseP1tvaa3yKv1lSOPG6eWLfIAgEu72SJfJ3idyHtvOBXFxjcR9xPnW/3GdrdpXlpvTD1z42Vz8W4X/13Csd6HuG3sM4v5xFzier4ze76/8lf+yt3f+3t/76vi3v73//7fj8daH7g0ab43bR2nSY9vtT5Orf5+5md+5mlPbkfc/5YlMZdwhLx8XllyfnGueu71LI0DgOf24kth1q3m3r9///jd3Z69f+ezRyfWuQK56q/aTnGvXr362voY53n314sVLb979+7x+FVtsV8VYMpP85njqvwi9xnj8jhxWy238ovy8VNs5O1yftV4Wq72I8bGeT3/dGOgGJvl/Fq2jpNreH38r//1v+7+4T/8h3e/9mu/dvcjP/IjjzfokD/wB/7A4+/4XjK/c45ffn4dLb9sTVzvdR7l/PIx0bLOLdLq09vkcau+qjjJseb8Wn153ue/qIqRuXOH49RfbovbSas9zveOS46TrZ4HcvTzC/lNjZRffH63XDI/Ht+pHDfslXw9OT09py3G1YsqTj1rx1sbX8n5ndMX9vdjP/Zjd3/rb/2tu//+3//73S/8wi88Fiy6C9/3vve9x6/xYEy91+VzvmY1Vj6Ptc4bRzyX6PWy1JpYANjbzd7xttpOcXqTietjnOfdXy/WfPxyW+5Xb3rKr+rDcn6tPmNcHifGSyu/KB6/Kq4aN663VpzE2Div/PRP6jE2i/n1bB0n1/j60Fd2/v7f//t3v/Irv/J4Zf///J//87j+Evmdc/zyvh0tv2xNXH59tFT56biItte8C2yNG9vM61x4V23i9VV+ivNynO+9fh3n/iT3KVqn+Wo/JG+T46o+Tf/jrY+f2xzv5XxcWnGi2K2eB3L08wv5TY2Un57b8fVTuWR+PL5TOY5f1/kinqS3tFe/lTyW3mzmXqDPmd+p+E7+9nRl/5d/+Zfv/uf//J93f/fv/t2ntRiFXvN+3efXf2yzuM4Fsrktb1PFWY7NyxbXq79qO69rtVXro952rTaLy3F/W3H5mADApd1ska+TsorcXAjrRO31a4vg2Kem2O8cX8lao7UPLWvyU3sl91H109p2qTiGf+IO21Ox/4u/+ItPSwAAYCQ3fSVfxWRV6Hp9bs+xeVmq7aS3rA8WvgqU47J8tSiONbetOD7Hzi1HsY8cp/y8LrfF5Wo/Ii3ndQAAAFiGr+sMKn9n9pr4Kr6mue/jAwAAYIoif1D5Svk18VV8TXxdBwAAYD2KfADA5vQvcRb/dc5TVq07R+xv674j74/+9VTTnmNFrXGcT5yyat05Yn9b9w3gdBT5AIDdxX+h05SLQa3by559i/rXv576/0m6dKGrHOI00rEGsNzN3vG24rh8R8VsTX75+FW/ohPv0NijbX1nyN5+n5Nf5jGlutFLzKE3bsw37scc7mg3tSa/3vPELpnfOccv79vR8svWxM2dg6zKT8dFvH3VX349al5/9bp0bI6xeL6K20oVn/uKtD6eX+L2ebvcZ+Q2rff+Wu5HWn05LvcnrcfE28THtzdePH4S2/I2uiN5vOO3Y7XsMeK44vWZ1vu8G2M8H/vLxy9SnGi9nn/Kz2I/5njJ6x0v+bi05P3tOfr5+ej55ceycsn8eHynchxX8i9AL5o4xRPq0eXc4wkcwGX5TXnta1OxLrIkvrnHPjXl81U1puZFReqpcg7KT1McR6rxvS/ePorxyi/2JVV/UvW1ROxPUzx+uS3nkgv8Vty53LcoPx/nPFaVg7fz30gxrcdNYn/X9D4IXIubv+Ot/xlT847TiSf2Gf+pM8apv7h9lLcxjxtpnU5y7q+Kj/1Fjo3tPtnG/tye+453fKwoxv3l4yLu3/PeDy/HsbO4nVX5+YZYeWzb+nm1NE64Y+HUmvzOOX55346WX7YmrnqtVXJ+1eNd9RfjPO/8erGi5bnzled9fslx5r4kjlv1W53XJMdW+9GK1/GLv+CV+9JyHLeimMpcn1V/MVbz8fxc9aPl/LzKcab11eNW9Rvz68X6+deKcV+ydtyWvL89l3r9ygj55ceocsn8eHynctxNX8n3E1iT5isxJse1to/rdZKObadSX6KToOf9N46nSW9uUStPLT8Hj+McxCf+nHs+Vn4DrtqAW6PXgKfndKlxI53XNF0yhxadn3ROi+fnpY5wbDMf5yMeawDL3XSRv+RkvPSEvebEHk/qz3ESXfum0/PcuetDEoAf0GvZ03OK4/oD+nOLRfRz7/9edA6Nx/Yo4nE+Ul4A1hm2yN+yED2lL8f7qyZRPHle2wn0mnMHbsma89Ua+V8KT6X8Tj2HtPZtr31+Dnvmrr5P/XA24rEGbsWwRf5WhahOZKf05XhdiV6z3aVx4gaul841eg37vGUq8Lx+7Ws89qlpTbEYL3LEPjStOS8qNn5dJ24b88t9al0W4+P38edUfZnaluSnKR6/2DaXR+4nyh+8Ypymub4j5ef9yNv28tW6TDGt4wJgfzf/nfw1evGntgHAllRIVcWU1+f2HJuXpdpOesua99ftvG2csriualfxqam1bV4f17Xa8tcBqzjLbea+luTXa/O89WI9mca1HBPjLK6r2r0frW3z+rgut7WOSxUHYFs3/518FeCa8gnHejGttri+ulLkNk/5BB3bsnjFxu15m6Uny6r/3Ndc7rFd48YrQFlc5/2YGw8AAADr3XSRLyoqc2FZLXtdry3y+upKUZ6yVruKaBfwua2Kl95ybjP3U22bp0z5Ve1xOe6HVPEytwwAAIDazd7xttpuj/y4I9sU+dX2yO/U10dlj/zOOX55346WX7YmTjcGmnvchNfHFPnVyK9Gfm0jv39ko+Z3s1fyl7yBAgAAANfoZu94W9kjP+7INkV+tT3yG/n1kfftaPlla+J0BW3ucZOcXzwmnp8bd2mcLY2TrY6fcvSFmRy39HmQ46SVn2IjjV31Z1sdv5zj0uMXny/Vfspcft6uimv12Xv+2RbHJVoaJ1s9/+QW82s97tEl8+PxncpxN/+dfAAY0dyb8yi23k8XNp5U4KuIjnKMlkemfQRwfSjyn8ST9CVP2DmPOOU3mp4YG/vcUx4zT0vF2OpmYgDm5ddc9Vr0fF6X48TLep1X56K57eL6udg18jbOL673fKv/NeMqNhe9Ws7HRHGeIsflNs+3/ormPS3l+Cq/+Lcnx7jPfB+E+Fc078cjirEx3rw+t3k5HkMAbRT5hSNdtVAunqorSkcWc9fECRm4DJ03qtei5uPfVpxpWechTbFN83PbaX2c9xTPaY45lfp2furLebjf2L/aVKTG3FrU35wYk/fReVg8zr0c408wz/VZidsov/z+4fY1Yp/69Tjn4X7813F+PBxnsZ/YFtfnNtE++Fi73ROAr7vpIr91YsjrHNeK7a3PV6IdG7fRSSuffJfI43rZfWm5Gs/r4zqJsbntlPx6cn9xbP/N68Tr4zqp9hlATcXRKfbYLhbHW2uNq3OE2qo7kmvZ5xFNW5/7ZOk+559g3lrvcVnq1D5O3S4fO/XjiXM/8HU3W+T7JD93YohxObbVR1wfr3SY2z2vk5amHHcqnwSdg+cl5qap+hDitpjP0jelc2lc/43zknPPx6uVOzAKPa89reHzy5Jtl8ZlS7fz63NJ7FrqW0W5pl7fzsFX8jOfRzTp2O1R6D8XH+et9sHHzsevx+OuHdv9a5oTY5UbgB/i6zpfrDkxtGLj+rn+lvRh8QT2HG80c7mvEXPXtLctcweOSM9xT2vFbXuvxxinaak128W4rc9rKso1qe+5/fSV/Bh36rnqOc7Pp/Bx9nHZgvusLmJFcVzNL+X+PbVo7CVxwK0atsjXi9/TOXTiOKUvx89d6ZgTT2BbnaCfS8xdE4DLOLUAXXPOi3rbndrnEqf2veb8pNg8jpav4fy8xQeRU4/xHtvxvgL0DVvku7Dc4iQQ+1pyolKM4/f+TuUlnXrSBvC8VIDq9epJ56bIr+W5uBafG5dsl2NjcazlFhWomuK2mfqOcTmPXv+W81NfuYDPMXmcufYexVdO6TNuU+1H5jgfP01Z7FMXsXIe3sZx7m9JvhL717R0OwBTL74Uod1X0IcPH+5ev379tFT7/Pnz49+XL/ufGbaOE51k5grpqr+8nZbfvXv3OP/27duv2k6Jy/OypD/l1+pHtB9zuWm5F9faJs9L7E/y41HFa1/yfljsL+YnMX7JvCztz1r7kS2Nk1FfH5U98jvn+OV9O1p+2Zq4/HxuOfrzj/ymyK9GfrVL5jfy+0c2an43fcdbbRv5Kke+6hDjtD7257acg9frBaIXiturfHMeMTZTjnE/qm2Vn/bBy46p+lV+fny1PubmZfcX2yz25eMXj0vk7X38nKPl/LQc5yX2G/urHrO4LPFx61kaJ9yxcGpNfuccv7xvR8svWxPXer1lR3/+kd8U+dXIr3bJ/EZ+/8hGzW/+o8jA9OSNk+UndRVjS9bH9ipWxbGmuI142ZOL6CjHmPuT3ObluE56y9XY0usrT1mrPS7rQ0jVFtdJzi+3AwAA3JKbLvIBAACAEVHkAwAAAIOhyAcAAAAGQ5EPAAAADIYi/0zx1156FJenpWJs/kWaveQxNZ2b+5rtAAAAcDqK/GcUfxlG0zUVvfHXf64tdwAAgFvz4kvx1v2twffv39/d398/LdX2/p3PHl1hbv28o1X95e20/PHjx8f5V69ePbZpneT+4/qqH9N6H78cJ16n/DymuS32Fzk2jyexP7dXfUvr8Y0xmtexaR0/z/s457GzeJzNfYn78/axrbL0+bJ1nIz6+qjskd85xy/v29Hyy9bE5fNBy9Gff+Q3RX418qtdMr+R3z+yUfPjSn6Dn9yaXGyK5lWkaorrJW6TtzuV+vFfF8deNzdebI9tWn4OHsc5eF5cxHhq5a476OY2AAAA9N3sHW/zdlp2AaqiMrd5Ocapv9yWt/MdZTVfUbzymxuziqvGq+Ikx1rr8c3jV2K7x5VWjjFuyf6K8ot3DK543Es8/0Z9fVT2yO+c45f37Wj5ZWvi8uuj5ejPP/KbIr8a+dUumd/I7x/ZqPkNeyVfT05PR6EXS5yuiT7YXGvuAAAAt2bYIp+CdJ0jfRgCAADAefhOPgAAADCYmy3ydYX/lK/0aDt9X1ZT3i73mf8VIbbldn0dJrZlcZ3n58ZriX3ZXF/e36rd2/q4ZGozz+f9XZo7AAAA5t30lXwVlnGyXHDmZRWo8Tvqkdf11lft0mqPyx7X3BbXieKivE2l11fc39wuWhfjLMbHefFyXCdzywAAAOjj6zoAAADAYCjyAQAAgMHc7B1vK3vkxx3Zpsivtkd+I78+8r4dLb9sTRx3vJ0ivxr5tZHf1Jr8qK+mri0/ruQDAAAAg7nZO95m6sefWPXptdfnmvx0/OIdW6t81x4X5ZfFPnv9xfE17zvy9qzNL8flMbN8PKL4/Mv9eP7c/LKlcXIrrw/ZI79zjl/et6Pll62JmzsH2dGff+Q3RX418qtdMr+R3z+yUfPjSn5hyZvrqbbqW/3ESS/Ga6EPU5quMXcAAIBrcNNFvorLqsCM6zwf1+kqm6bWtnG9ruJL1Y9o2f1FMT5vM6fXl/963vmJ17vN3F/VlpfPlfurjl+cNz8ecZ3E2HxcAAAARnWzX9eJ27kQrL6u47a47Dj1l/vJ8zp+ra/reN75LR03xlnuV7He39wW5/11nbhecpxUfUStxy33FY+f5PbYd6stz/f2V7Ss/Kpjl615/vHPrVNr8jvn+P3Mz/zM3b/9t//2aQkAsLVR3z+yUfPj6zpfzD2J59orp2yT9fpQ8Ranvbkw34IKbU3PlfsWjwWO59/8m3/z+Nh60nNUU1xXTUvjNOlDcLU+TluPqxip2vJ0qfyWxGkiv+m0NE4T+U2npXGayG86LY3ThOs3bJG/ZwEci9RLueYXYz7JAAAAYFvDFvl7FsAUqX2X/PADAAAAvq5ztlZBS6ELAACAS7npO95q2+jjx4+Pf+PdJqv+43atNq/X8Xv79u3jvNbl/lp9VXExvyzGan9zjNtjfnFeerlobB8/LcdtPB+Pc6+vLLZLjoljiZbjfN7fPJ6XHRfbK63nS4U7Fk6tyY87Fk4pbsnzVDh+U+RXI78a+bXx/jF1bfnd9JV8PXnjZK15U8GrqWrLfUlcV7W5v6iKM83nKXN+uT0u6++7d+8e58VtbrdebjnWWn1p2ftbtYvXa6ryy/PS6i8v530BAAAYEXe8DfbIj594miK/2h758fqYuob8dAVtyf/vw/GbIr8a+dXIr433j6lry4/v5AMAAACDocgHAAAABkORDwAAAAyGIn8jp/5kZtzu1D4q+k6v+qumPazpV7nZlvnssY+n9hW3i/sLAADwHCjyB6VfldH/MOP/acbzc/8TzSlU0KrfU4rZrfLx/6joactCHwAA4NrcdJGvQrAqBr0+t3lZBWV1Nbr1VzTvaanWNl7Of9do9Sm5X++rlvN2c/I2VZ+R46v1/pvb1Ff+qcyq0PfjtrTvuL76K2/evHlcjuvmOD5v0zomwHPxc1C2eB7G14enNU7ZZi9zecTXbzXtwf3Gxw0A7GaLfJ0cq6u+Oll6fVUoatm/x+42xcW/4v7jvKfcZ2Vum9i//24p9i/xuCzJX+I+eBv3mYtyifFxG6v661GcKd6P21zffsP09rkfL2v+4eHhq+1yn5U4TrWNjzNwaVs9D+PzXdOS14nE18rRKdd4Tov7+xz7EN+PAMD4us4Xa07AS2P3Pqk/d/9VUS5+IxbFtK4obZHvnvu8tO89c5DWcQayJUWdYvSarF6Xaot9OMbrcv+Oz33F+LzNEs4vbhv7tCpOcqzz03KMzcvm9a0297eFPEZcdg6tmNzm+S3zAzCWFw8PD92q5cOHD3evX79+Wqp9/vz58e/Ll/3PDFvHif45WFdTM6033zU19ldtp3Hfvn37tfUxzvPOL8ZWcaLj91M/9VNfLUuOdX65v6yKq+TjF8czr/Pjm3OK8VrW2FV/ms9a/VjsL/eVx/0v/+W/TPKTvF3Mr+IYWTLu2vy8XMVqPvaXVXE9W7w+oqX9bR0nRz+/XCq/ude46LGNz7/Mj73HnTtf5XGrGKniZG47y+1LXpdzcbJmuZqXqs37KzHWYpz0HjvFVvsRxxUv+/1D3B5jW/1VnN+S55/MxQmv36mR8us9n+yS+fH4TuW4m73jbbWd4nRVJK6PcZ53fzG2ihMdP71QvCw51ldvW/1ZNW4l72/Vl9f58c05xXgtK8eqvzifj1/ux2J/rb5EyzrB5PwkbxfzsypGloy7Nj8vV7Gar/rLYlxPfnx7euPZ0v62jhPuWDiluN5rXI9p1nuMPe6S80srJs734iRvl+XYJa/LpXHiWB/nqr23bW6rjl9UxVViv8pvyTFc8/6Rj0vm/JY8/2QuTnj9To2UX+/5ZJfMj8d3KsfNfxS5AXoiH90Rc6xOAHrDqXLdM3+/YUZVbkd0xMcVx6bntZ/b+pDZe57r+aXXRqvwfA7ON+YdOb9LvRY0rqet5H2u9jvbIw8At+1mi3yddH1CjSdgF6lV2xzFV+JYS/tcs43a13L/ukp0yvZLxH3I+VdFx5p9zuYeNy3HYmJN34qvqA8fv6V9KsbxS7cBTuHnl14bmo7K+SnXS7wePO6lxrej5AFgHDd9Jb91Mm2daHvLMT7HidtzW1yu2ua2kbyctdq13lcCY0yOzwWC23Oc5b6q/txnbnN8tT7Ky9La1mIxEeXluL+xv6rf6vhJXI79iePzNjkO6MnPn57qQ7Xpw8BRXDqX5xhfr3M9Hr3H70iPCYDrxdd1AGBAKiJVLKqgrD5oqk1TLjarAjPGV/2dSv2qP01VLrY0bi19SPd+5X41r3Uet8VxUezTU4/78LRm/5zb2u0AjI8iHwAGpaLPBXkuALWc1ynW61rx1QeGKC6riJ6j/uK4lpfXxEVz8Vr2lGlda9yW2F+copyjtGJ7y5qv+gIAocgHAOAMKrZ7V/v3prHzhwEAoMgHAOBMl7yiztV8AJUXX04O3Y//79+/v7u/v39aqu39O589uoIxd4K7ZH5HP37kNzVSfrw+pq4hv1evXi0q3Dh+U+RXI78a+bXx/jF1bflxJR8AAAAYzM3e8bayR37ckW2K/Gp75MfrY+oa8lv6Hetefn7s98hPFBefX9VzrcpPcZmuFu6RX1TlF3Op2nz8ljweiq/2o9pfmetP1j7/Wvvo/RDti1U59I5fpv+xeu/XR94nxfX2IcZXxyNTzJaP29L9FT++vTyr/qr4c49zZcnx23rcNfld6vws15IfV/IBAM9KhYMnFVixaHsuKmDifS5aRZ3MfWVhTt7fc/tbKhdp/rDiqbfPlbitJt0M8LlpH3T8nENvH5b8ulNP3NfnfNzmzO03YBT5AHCFlr7Jqyiqimht7ynyctUmrf4ybXvqHbU9drVtq83LMbcqTrROhVLUK5zy/rb6jebaJcfEZc1Xx8/L+pvj499M+5CL1K2LRedU9dlq8/LSx23NPuQPIa1+o7l2yTFxWfuhqRWjv7Etrq+0+gOWGKLI94umNcUXSW/aOk6TT9K9aetxl8ZpIr/ptDRO09Hzw23Tc8BXIOPzQfMqjjzl50psz9tV/WXe3lfKe7GZt63G1/O+1SZadhEY+8lxLYqds6Rfx5zK27eOX8xBx0Q8nv8uzWFJzBIxJ00x51t63Pz6qMapcvB41bi9/vIyUBmiyNeTvTfFF0lv2jpOU/zn4Na09bhL4zSR33RaGqfp6PlhPHpj95u7P2S2tJ4Dc8+NJc+dc55f3gdNLlKX0PO+59T9PVXVr/Ypr8/7GwtzrZNqu5a99mdO3A/nvQSP2w/stT9AC1/XAYArokLBxYI/ZJ4iFjB7UL+tDyHeB01zBWC2d97naH1gyfu7ZJ97x+9S4n5oWuNWHjd/GNhqP7fuD7eFIh8AbowKhljA7EH9xn/p2oKKHfe3VZ/RuYWUikDltUVBpn62Pn6V5ygeb+lx84eBrfZ16/5wWyjyAeAKbfWG/xxF3h5jnNOnjl3eXstrj+kW++VcemNvMY4KRRXb0Sn7fK5z9kW5brEPWxzP53rcoq37w/i4422wR37ckW2K/Gp75MfrY+oa8tvijrd+7D1u7tPFktZp/uPHj4/LVVy1nbmtF9fbXjR2PC7VtnE/ROvjmJ6PxzmPFfOQahyL/fWOnWld3A9vH8eI8rZxWeJ2vVgte1xv4/YYm4+f5DElHr8o5mPv3r372vMvxrTG1fqYl+eXPm5+PCy2SdW3ud+87lKPm4+ft8l9ydL+Wo9btjRO8hiVrcddkx/vH1M5jiv5ADCg/OZcLXtdbJvbTgWRpri9VNupiKnWx0l9ZbE9i+tjey/WU+b8qra4LudYbVPF+G+cfPwix0Za1zp+UexLbVVfkWPm4rK4XWv7JW2et16sp0z73GqL63T8omqbrR83x+W23rLmq76k1R+wBHe8DfbIjzuyTZFfbY/8eH1MXUN+uoI297gJx2+K/L7O54AlcS2t5yKP79Rz5Fed1/fIj/ePqWvLjyv5AAAMasmHRVGcJl9V9vLS7fF8eEywFEU+AAAAMBiKfAAAAGAwFPkAcON638eu2vT/DGh9b7u1Tu0rbrdFH1n8dZOepXFbi+NqP+JUmWs/xal9xe1OPX69sXUzsSUu9diJ89/y8QCMIh8AsJgKovid7dGLkyP/qomOvfPTvB+T1mOjx67XPhrdTOxa3MLjgedHkX+G6gWpdZ6OIOYRc/MU5eW9xfFiTjmPvBz12q7NJa8m4fosee4rRs+r6rmltlYfrTaty0VvVZx4+3wl1XFuN+cX2+Nf8X7EdXMU6yny8pIrvfnYVX16PsZWcRL3NbdJazsvV9ssoXGXPHaK09QbP7bF9dVfcX9x3RzH523i8ZtTPf9yn1V/VZzE2NwmWqcYx5ljq22APVHkb0gvYF8hOeqn8pifpqX/nLk1nQQ1vuTjpmnpsXMfI9AbcH5zAE7l15WeV5riayq+5vJrrdfWoliL2+tK6pL+XXxW/Xje+xG364njVNtoee2V3lafmhfvx9zYPv/ltrxdVaRqfZ5vmWuXGKM+e8c55uc2b5/78bL21f3F7XriONU28f1jqVaffszc39zYsT22eb2PX2u7nmo84Bw3ccdbxehmEr3+FGO5v9ym/PId91p5xPU5xsvuL/aT/zrevE5irGhfZUmOuf/cr/n4VTFxe6ti/Dfub2yP4jYW+4h/4/7GbTQfxfXePnN/PnatPkRtfn24vziGeDk//3I/ko9Ly9avj6X9bR0n3LFwSnG950F87ljvMfa4vdeclvPryGJsjGvtR4zX8Xv79u3qcXtxGje25/ml+6H5/PqtuM88btaLi8sxzsuxrbdd1RafV1oX5fg4bsUxkvcjzouW4x1be3FL9jfGVX1UcV6OsVHerorLr7cc5+XqdVn1v+T1Zvn1ITk2Pr49W8dJK+/okvnx/jGV47iS/4WfyDpxaNKyuc2T2xQncy+AfMe9nvyCisuad34xD3OsJp1cxNv67xqxP43pPluW5ifqS3E9jvXx87LEvrKYd8xB884vrq84v6oP953bJLZr3svqKx6/Xj9L8sNt8/NGqjuiRnou6bk39/odlfbf0xb8el3S59K47NTtxM8NT6f0cRTnHIfKcz12t/x6w/EMfcfb6p+9qlj3UY2b+9eyThaiF7TbWnnE41f15XFjX9IbV/nF9lZsFZfpn6tb+VnOz3G571PyM62LHK/jp3+ynutLescwxuX8oqVxojYfvxwXl1vHz7zs51/ej6x6nrbksSpL+9s6Trhj4ZTi5p4Dosc2vn6z3vOqeg6e8jqyHOP5U1+/vTiNG9vzfGs/Im/jxzf2kbnP6nGrxs75Zbm/3EfcLj7/cpuXq8fXct/VflQx0jvOouXq/FfFLdnfGJf7iHr9ZUva8uuttU31uoyxsT+Jx7nVZ359SI6t+qtsHSetvKNL5nep87NcS35DX8nXk9NPUJ0UWk9WrdeTWS9gTZnaPF2S8zsnDx8TTz3e5+qYVM7JL+d16WPd4mNybn5b9YPbNff6jZa+hudozNyXnsNrcrmULV5rp/Zx6nZb/j9Teg/ksVvvubcDtsTXdZ7oRKeToKb84lRbnNbY+iTtDytr81hLx8DjaMwlTs3vWk6G8Zis2b9K7OfcvoCKnld6zqqwy69ht3mKem2ivvxhXlN+/sbt81XKOdV4oj40psdd0mfMY8k2MdZTNteni+i1Y1vervc/BjvW8raa8rh67HrtWl57nE3xlbnnS0Uxjl+yTYz1lM316W3Wjm3ezsdv6XbRmvGAJW6iyM9vcJleWEu1Yv0Cj7TcO0mfY03O59IJK/K+9k5Gz5nfWlvktuX+HflY4brpNerzX369ajlOUa9N1GerTdyWz385Pi57G89nGtPjRrmPSMueol5cnCS/f+R2c37Wi4tye2u7vFyJ27bi59q9H7m9txz7y3Hi/nJbXK6OS7VNLy5OUj3/Yrvl/e3FRbldy4qZi4t6bcC5uJL/hV5kKrSqT+Bu85RfkLFAm4vN7WtoW+dX9d2zdiyJueYTVmVNfupPcRbH8pS317pzxPx6ufXEPE/tQ2I/ua9z8gNwW3SuiOdSXK9z31eACkX+E724qk/gojZPUW9dXm+xPcYs+eTv/HJbXo59xXGqPqOqX6+rjku2NL+Kx/IUxXVVm/XaxPn1zPWhZa+LbXPb5XHdT44DgDXmzmm4DrwXYA8U+VhtiysOemNSP89FY/lK/lGvmCg33rABAMAWKPKx2lYF8nMW2hpLBbSmIxb4QoEPAAC2QpEPAPhK/Be2/K9t/hexHsV42sqpfcXtTu2jt79L+9zyWKyRx/W/ZG6Zz6l9xe22zGdva3O9pn3DeF48PDx0L2t++PDh7vXr109Ltc+fPz/+ffmy/5lh6zjRT7TN/YLNJfM7+vEjv6mR8uP1MXUN+elW93OPm+yRX2tsP5d6/eXn21bPP/Xju1+vOc5x/CqXJcfPY68ZN4tjL9lfO+fxzfub96M6HrI2v5/6qZ8q+7El+Tk3mRv3uY5f5ri512bVX+tY75HflsevlXd0yfyOfvyOkN/Qd7y1LcfVeP5aha6KVGPHnJYcP/e5JL84Zmvf1x6/LPe55fGTan+dRx6bO9pNrcmv9RyJLpkfj++U4lrnlkiPrd6AW/n5sW+9trxe1OZxzdvGPiy+fmNMHkPHT4VCXF+NK95nt3ubGK9xY1wrRpRfjvG8xG3y+ti//rbOz7HP6vhJHqcVJ3FMyY9v7kvi8yXmk+fjcbEYI1X/4ji3x37N7fGv5BjLMflxs7xNfA5kebvW8y+Oa1WM2zXfe9xsrr+M94+pNfnx/jGV4+Y/imBXehH5pLXW3ItvKfUTp3iieg4+kVxibGBkPr9oiq+t+JqLrzsXWloXeTmvXyJu0xrXYrvbNC/OTRwX5z0tOZd6GxXR+uuxLPa/lMZVjs7Dfbof/23FmcfWpALV4vrednm+J8Z4G+WmqdW/Jrf5Km/Vj+fdX9yuJ45TbePjl81tlzl+zf56XK3Lev3FPoDndNNFvl50nrKqzfNrCnKfpHNfS+RtPK7X5f4cn/OL8XmbJdSfprztXL9eX7UBOE18Ten80nt9VcXIuVTAxHPRlmMs7WuP/Yq26P/UPp57u6WW9r93Hi60l1I+fo2seb7uvR/Ac7jZIt8vdk/xjbLVpnlZe5KJ/cVxeqptPK7ziGJ8fBO2U3IQxao/TdW2sd84ZlxfbWeOs14sgB+8Rvya8ZVorKfzzNyHpDV83lV/c30ujcu8zdrtrs2p+7l2O8Xpscjvl6fauj/gXHxd58meb5StvnVCcJveIFonpi1y6/WhceMUY+fG3iI3AONqndcuTecuf0ja6jzmiyGaevsd49aMHbdZs13LkR+bU/Zz7XaK0WPhx+NcW/cHnGvYIt8Fa+skphdgL6bXtiX1f+lP/joWccqc39pj8VzHELhF1Wv1uaiI0es65qD5/FrP/9PjUW1xjjr1HH7q2Gu202OQ88uP31FtcXz83Ozt76njtGzdH3CKYYt8vZg9tcSY/IKMbZr2or79yf+IdFxOvTIRj9/abQHsR69HvbY95ddnPh8ulfv1/5hpc+P2tIro3OeSc6m38dd15vLwRY44ZRo3xuU+vc1cXEvez952jo3mxvU2itHU6z/LY5n6cH/VmBXn4WlpHmu3c/xW+9vrb0k+wB5u+jv5S7Vi/aKOqhdztX0VV/Un1bpLOCePo+wDcCuq80ukZU9RXBfbclyLt2/Ft9p7y5p38Z7jROs8RXG5aqv+n4a8rHE1aX2cpIqN7ZbX9eKi6kNStZ2PzZzWuKb1isn95fi4HPvLceL+5vqItOwpystZaztprTtnf7NWf8ClvPjyZKyfrU/ev39/d39//7RU2/t3Pnv0iXnuBdXqT9ua+ohxuc28/uPHj1/114oV5+cYt3u95HFjjMS4V69ePc67T7eJ4yXnl+PiGLGt4n7zmFW/S45LFdfq8+jPv5FfH9ke+fH4TilOr/O5x03Ib2ppnIyeX3z9HzG/aNT8eufgox8/3j+mri2/m/4fb/Xk9ZS12rSsAjVqxUa5vRWbY3Kcxva63Ob4Kr8oLvsugz3qz33GbXO/S49LjgNwXXgNX4d87sXz4zHAJXHH2+AW8zvK4+uv8+RjxR3tptbkx/Nv6hry0xW0ucdNOH5T5Fcjvxr5tfH+MXVt+fETmjvL36lETSeSJUUNAAAA5lHkAwAAAIOhyAcAAAAGQ5G/kr87LnE+aq2PFONJ37/V5OUtxXH26L9SjfFcYwMAAIAi/2L8HXR/D13/B/5e30uPY2l67mJb411qbAAAgFt000W+ry5XhWfV5nlddV9Kd1SU3NecHFvlUf2NcUt5u7ytl/0vDVlrOwAAAFzWzRb5KkxbV7dbbZqXtb97G/uL45zDfVocY+2HEG+nKeenZe2vptgWx6u2M8eZ5tfkBwAAgPVu9o631XaOy3dzjLGa941gWnd9zPGtvsx99vJzjPTyk9if5rMYmx/f2Jfnq+PSGlN6ceLYJY8vd7SbWpNfdfyzS+bH4zuluNa5JeP4TZFfjfxq5NfG+8fUteU37JV8PTk9VfTE7cX02q6N9jVO2an7eup2AAAA2Bd3vH2iflwAq2ht9bkkLuaU86vydZ8xv2q71ritWPWX27JqWy973scvjlv1uzRO6/L+tnBHu6k1+VXHP7tkfjy+U4rrnYMijt8U+dXIr0Z+bbx/TF1bfjf9nfylWrF68ue26kWxZqxLOifPa9lHAACAW3CzRb4LdE+xMO+1ia6y2VysxJiqvZL73cvDw8Pq3CTn19rWcaZ5/4sEAAAA9nHTP6GpAtRT1mrTci5SW7FRr71V9MZ+47a5n7wc+8ttldh/jM/bVsueorwMAACA53XTRT6eh4r+uSv+AAAA2A5F/s70dRj88Ko/AAAA9keRDwAAAAyGIh8AAAAYzM3e8bayJE7jte48azGn3vGLv9Jjub/Y1xb7EfvT/Lt37856fJfsQ7Z0P6Q6fnEfRP3psZDe2Fscv4zXx9Sa/I5+/C6VH3e8nSK/Gvm1kd/Umvx4/5i6tvy4kn9hegHpQ4Mmzeeieckb/am26lv9xP2oCv89qSBqHT8AAIBbdNN3vI2/364+Ylxuk7jOBWU1dszJ8942xrst51dt7/k8rvsVr3N/LnhbsVrW/xjsx7fqS+K4ktuqcXOMaX2Oc3vcRnr55GXl58ct92P5OLcsjRPuWDi1Jj/uWDiluPwaauH4TZFfjfxq5NfG+8fUteV3s1fy/eT1pGVrtWleVFCuEfuL45wivvm38hTHxfWaj3+jXl9S9bfEXL+xPbZ5vT6EVNuZ1sfHoxcLAABwK/i6zhMVh3vZsu+1HzBki/F746qo1qQPAvkK5NzYex53AACAWzVske/Cs3VVV8VlL6bXdiRHyFPHUpM+CFQfBk7NUfFv3ry56L4BAABco2GLfBeemlpiTC4kY5umozp6njqup+aneH9dZ+22AAAAt+ymv5O/VCtWhWduc1EbrR3r1IK2Nc6a8fd0Th5H2QcAAIBrcLNFvgt0T7Gw7rWJvnduc7ESY3K71vm77K3tW3pj62sz1XrRuqzX1zliv2v69Hb+uk5rW62Pj8eWuQMAAFyrm/4fb1UMespabVrO3ztvxUZVu9f5u+zV9nFd9X1399HaNq+P61pteX21v5ZjK7HP3rbVsr+uE+VlAAAAfN1NF/kYgz6EnPIvIQAAAKN68fDw0K2KPnz4cPf69eunpdrnz58f/7582f/MsHWc6Oscutrbc8n8jn78yG9qpPx4fUxdQ35v376dfdyE4zdFfjXyq5FfG+8fU9eW303f8TbbIz/uyDZFfrU98uP1MXUN+elfppb8qxTHb4r8auRXI7823j+mri2/+Y8iAAAAAK4KRf5K+mRrcT5qra8oNv66TnRu/4rL097iL93Yc40NAACAH6DIvyAVvvqnsPjrOkuK4SX/jG+KjdNzF9vex0uMDQAAcKtuushX0ekpq9o8X12tbtH/uCK5r1N43CqnU/v379DnbWO/vavzeTsAAABc3s0W+SpOW1e4W22al+r36ntif3GcisfItF1r3DX9R4rV/znf2tb9+icqLY5XbWeOs14sAAAAtsPXdZ7EYnRrrb5d9KqA1rS0WM56bdo2TjG2t53MtQMAAOCYhi3yY2FbUQHbi+m1bUl59L6Tf+746jNOWevrOnO8zbn5AQAAYHsvvhSX3cu179+/v7u/v39aqu39O589ugLe+hqLLelP/Xz8+PFx/tWrV80+l8TFnHJ+VVvMr7Wt5qtxY4y04iqKfffu3VePbx7P88qvN6YtidM657fk8T368+9WXh+yR348vlOKm3vtGsdvivxq5FcjvzbeP6auLb+bLfLzdrH4zG+wMTbGqb+qn7wscfs8H/Or2j3fKvJlLq6iWBf5VT+eV3694t3Lc3GidRT5tT3yqx6D7JL58fhOKe5nf/Zn77797W8/rQGA5/fNb37z7lvf+tbTUm2P858c+fws15LfTd/xNn7VRH3EuNxmXq/Cyf21YsX5OaZqj/JYeVnjqnDz+qp/70eMa4nbxfHivPrLfXk7mYvLfbYejwp3tJtak188/i2XzI/Hd4r8auRXI7828psiv9qo+d30/3ir4sdT1mrTcr4y2oqNWu1ap/405fa87HFb/cxtX/Gv60iMz9su3eccBwAAgOfHr+tgV/oQoKvJS64oAwAAYBsU+TvTlfI9XUPhXF3xBwAAwH4o8gEAAIDBUOQDAAAAg6HIBwAAAAZDkQ8AAAAMhjveBnvkx80apsivtkd+vD6myK9GfjXyayO/KfKrkV9t7/y4kg8AAAAM5qbveJvtkR93ZJsiv9oe+fH6mCK/GvnVyK+N/KbIr0Z+tb3z40o+AAAAMBiKfAAAAGAwFPkAAADAYCjyAQAAgMFQ5AMAAACDocgHAAAABkORDwAAAAyGO94Ge+THHdmmyK+2R368PqbIr0Z+NfJrI78p8quRX23v/LiSDwAAAAyGO94Ge+THHdmmyK+2R368PqbIr0Z+NfJrI78p8quRX23v/LiSDwAAAAyGIh8AAAAYDEU+AAAAMBiKfAAAAGAwFPkAAADAYCjyAQAAgMFQ5AMAAACDocgHAAAABvPi4eGhe6ecDx8+3L1+/fppqfb58+fHvy9f9j8zbB0nf+bP/Jm7f//v//3TEoDoj/2xP3b3L//lv3xaql3y9Xv08wv5TZFfjfxq5NdGflPkVzs17urveEt+U+RXI78a+bWR3xT51civRn5t5DdFfrVT4+Y/igAAAAC4KhT5AAAAwGAo8gEAAIDBUOQDAAAAg6HIBwAAAAZDkQ8AAAAMhiIfAAAAGMyLT58+dX8n//3793f39/dPS7W9f+ezh/ymyK9GfjXyayO/KfKrkV+N/NrIb4r8aqfGcSUfAAAAGAx3vA3Ir0Z+beQ3RX418quRXxv5TZFfjfxqt54fV/IBAACAwVDkAwAAAIOhyAcAAAAGQ5EPAAAADIYiHwAAABgMRT4AAAAwGIp8AAAAYDDc8TYgvxr5tZHfFPnVyK9Gfm3kN0V+NfKr3Xp+XMkHAAAABsMdbwPyq5FfG/lNkV+N/Grk10Z+U+RXI7/arefHlXwAAABgMBT5AAAAwGAo8gEAAIDBUOQDAAAAg6HIBwAAAAZDkQ8AAAAMhiIfAAAAGAx3vA3Ir0Z+beQ3RX418quRXxv5TZFfjfxqt54fV/IBAACAwXDH24D8auTXRn5T5Fcjvxr5tZHfFPnVyK926/lxJR8AAAAYDEU+AAAAMBiKfAAAAGAwFPkAAADAYCjyAQAAgMFQ5AMAAACDocgHAAAABkORDwAAAAzmxcPDQ/dmWB8+fLh7/fr101Lt8+fPj39fvux/Ztg6Tshvivxq5FcjvzbymyK/GvnVyK+N/KbIr3ZqHHe8DcivRn5t5DdFfjXyq5FfG/lNkV+N/Gq3nt/8RxEAAAAAV4UiHwAAABgMRT4AAAAwGIp8AAAAYDAU+QAAAMBgKPIBAACAwVDkAwAAAIN58enTp+7v5L9///7u/v7+aam29+989pDfFPnVyK9Gfm3kN0V+NfKrkV8b+U2RX+3UOK7kAwAAAIPhjrcB+dXIr438psivRn418msjvynyq5Ff7dbz40o+AAAAMBiKfAAAAGAwFPkAAADAYCjyAQAAgMFQ5AMAAACDocgHAAAABkORDwAAAAyGO94G5FcjvzbymyK/GvnVyK+N/KbIr0Z+tVvPjyv5AAAAwGC4421AfjXyayO/KfKrkV+N/NrIb4r8auRXu/X8uJIPAAAADIYiHwAAABgMRT4AAAAwGIp8AAAAYDAU+QAAAMBgKPIBAACAwVDkAwAAAIPhjrcB+dXIr438psivRn418msjvynyq5Ff7dbz40o+AAAAMBjueBuQX4382shvivxq5FcjvzbymyK/GvnVbju/u7v/Hxi0EE6KZluuAAAAAElFTkSuQmCC;" vertex="1" parent="1"><mxGeometry x="10" y="10" width="761" height="692" as="geometry"/></mxCell></root></mxGraphModel></diagram></mxfile>